<svg width="72" height="66" viewBox="0 0 72 66" fill="none" xmlns="http://www.w3.org/2000/svg">
<path d="M0 2.0637C0 0.923949 0.92015 0 2.05521 0H63.5223C64.6573 0 65.5775 0.923951 65.5775 2.0637V17.0323C65.5775 18.1721 64.6573 19.096 63.5223 19.096H2.05521C0.920148 19.096 0 18.1721 0 17.0323V2.0637Z" fill="#3B82F6"/>
<path d="M61.6563 9.62835C61.6563 12.9764 58.9534 15.6905 55.6192 15.6905C52.2849 15.6905 49.582 12.9764 49.582 9.62835C49.582 6.28033 52.2849 3.56622 55.6192 3.56622C58.9534 3.56622 61.6563 6.28033 61.6563 9.62835Z" fill="white"/>
<path d="M3.85352 6.91974C3.85352 5.77999 4.77367 4.85604 5.90873 4.85604H42.1318C43.2669 4.85604 44.187 5.77999 44.187 6.91974V12.337C44.187 13.4767 43.2669 14.4007 42.1318 14.4007H5.90873C4.77367 14.4007 3.85352 13.4767 3.85352 12.337V6.91974Z" fill="white"/>
<path d="M6.42254 25.4931C6.42254 24.3533 7.34268 23.4294 8.47775 23.4294H69.9448C71.0799 23.4294 72 24.3533 72 25.4931V40.4617C72 41.6014 71.0799 42.5254 69.9448 42.5254H8.47774C7.34268 42.5254 6.42254 41.6014 6.42254 40.4617V25.4931Z" fill="#3B82F6"/>
<path d="M68.0789 33.0577C68.0789 36.4057 65.3759 39.1198 62.0417 39.1198C58.7074 39.1198 56.0045 36.4057 56.0045 33.0577C56.0045 29.7097 58.7074 26.9956 62.0417 26.9956C65.3759 26.9956 68.0789 29.7097 68.0789 33.0577Z" fill="white"/>
<path d="M10.2761 30.3491C10.2761 29.2093 11.1962 28.2854 12.3313 28.2854H48.5544C49.6894 28.2854 50.6096 29.2093 50.6096 30.3491V35.7663C50.6096 36.9061 49.6894 37.83 48.5544 37.83H12.3313C11.1962 37.83 10.2761 36.9061 10.2761 35.7663V30.3491Z" fill="white"/>
<path d="M0 48.9677C0 47.8279 0.92015 46.904 2.05521 46.904H63.5223C64.6573 46.904 65.5775 47.8279 65.5775 48.9677V63.9363C65.5775 65.0761 64.6573 66 63.5223 66H2.05521C0.920148 66 0 65.076 0 63.9363V48.9677Z" fill="#3B82F6"/>
<path d="M61.6563 56.5323C61.6563 59.8803 58.9534 62.5944 55.6192 62.5944C52.2849 62.5944 49.582 59.8803 49.582 56.5323C49.582 53.1843 52.2849 50.4702 55.6192 50.4702C58.9534 50.4702 61.6563 53.1843 61.6563 56.5323Z" fill="white"/>
<path d="M3.85352 53.8237C3.85352 52.684 4.77367 51.76 5.90873 51.76H42.1318C43.2669 51.76 44.187 52.684 44.187 53.8237V59.2409C44.187 60.3807 43.2669 61.3046 42.1318 61.3046H5.90873C4.77367 61.3046 3.85352 60.3807 3.85352 59.2409V53.8237Z" fill="white"/>
</svg>
