<svg width="309" height="47" viewBox="0 0 309 47" fill="none" xmlns="http://www.w3.org/2000/svg">
<path d="M0 1.3758C0 0.615966 0.613433 0 1.37014 0H42.3482C43.1049 0 43.7183 0.615967 43.7183 1.3758V11.3549C43.7183 12.1147 43.1049 12.7307 42.3482 12.7307H1.37014C0.613432 12.7307 0 12.1147 0 11.3549V1.3758Z" fill="#3B82F6"/>
<path d="M41.1042 6.4189C41.1042 8.65091 39.3023 10.4603 37.0794 10.4603C34.8566 10.4603 33.0546 8.65091 33.0546 6.4189C33.0546 4.18689 34.8566 2.37748 37.0794 2.37748C39.3023 2.37748 41.1042 4.18689 41.1042 6.4189Z" fill="white"/>
<path d="M2.56901 4.61316C2.56901 3.85333 3.18245 3.23736 3.93916 3.23736H28.0879C28.8446 3.23736 29.458 3.85333 29.458 4.61316V8.22464C29.458 8.98447 28.8446 9.60044 28.0879 9.60044H3.93916C3.18245 9.60044 2.56901 8.98447 2.56901 8.22464V4.61316Z" fill="white"/>
<path d="M4.28169 16.9954C4.28169 16.2355 4.89512 15.6196 5.65183 15.6196H46.6299C47.3866 15.6196 48 16.2355 48 16.9954V26.9745C48 27.7343 47.3866 28.3503 46.6299 28.3503H5.65183C4.89512 28.3503 4.28169 27.7343 4.28169 26.9745V16.9954Z" fill="#3B82F6"/>
<path d="M45.3859 22.0385C45.3859 24.2705 43.584 26.0799 41.3611 26.0799C39.1383 26.0799 37.3363 24.2705 37.3363 22.0385C37.3363 19.8065 39.1383 17.9971 41.3611 17.9971C43.584 17.9971 45.3859 19.8065 45.3859 22.0385Z" fill="white"/>
<path d="M6.8507 20.2327C6.8507 19.4729 7.46414 18.8569 8.22085 18.8569H32.3696C33.1263 18.8569 33.7397 19.4729 33.7397 20.2327V23.8442C33.7397 24.604 33.1263 25.22 32.3696 25.22H8.22085C7.46414 25.22 6.8507 24.604 6.8507 23.8442V20.2327Z" fill="white"/>
<path d="M0 32.6451C0 31.8853 0.613433 31.2693 1.37014 31.2693H42.3482C43.1049 31.2693 43.7183 31.8853 43.7183 32.6451V42.6242C43.7183 43.384 43.1049 44 42.3482 44H1.37014C0.613432 44 0 43.384 0 42.6242V32.6451Z" fill="#3B82F6"/>
<path d="M41.1042 37.6882C41.1042 39.9202 39.3023 41.7296 37.0794 41.7296C34.8566 41.7296 33.0546 39.9202 33.0546 37.6882C33.0546 35.4562 34.8566 33.6468 37.0794 33.6468C39.3023 33.6468 41.1042 35.4562 41.1042 37.6882Z" fill="white"/>
<path d="M2.56901 35.8825C2.56901 35.1226 3.18245 34.5067 3.93916 34.5067H28.0879C28.8446 34.5067 29.458 35.1226 29.458 35.8825V39.4939C29.458 40.2538 28.8446 40.8698 28.0879 40.8698H3.93916C3.18245 40.8698 2.56901 40.2538 2.56901 39.4939V35.8825Z" fill="white"/>
<path d="M98.566 9.324V36H92.068V20.002L86.102 36H80.858L74.854 19.964V36H68.356V9.324H76.032L83.518 27.792L90.928 9.324H98.566Z" fill="#3B82F6"/>
<path d="M124.899 14.796L111.599 46.07H104.607L109.471 35.278L100.845 14.796H108.103L113.005 28.058L117.869 14.796H124.899Z" fill="#3B82F6"/>
<path d="M146.439 9.324V14.53H139.371V36H132.873V14.53H125.805V9.324H146.439Z" fill="#3B82F6"/>
<path d="M159.352 36.304C157.274 36.304 155.4 35.8607 153.728 34.974C152.081 34.0873 150.776 32.8207 149.814 31.174C148.876 29.5273 148.408 27.602 148.408 25.398C148.408 23.2193 148.889 21.3067 149.852 19.66C150.814 17.988 152.132 16.7087 153.804 15.822C155.476 14.9353 157.35 14.492 159.428 14.492C161.505 14.492 163.38 14.9353 165.052 15.822C166.724 16.7087 168.041 17.988 169.004 19.66C169.966 21.3067 170.448 23.2193 170.448 25.398C170.448 27.5767 169.954 29.502 168.966 31.174C168.003 32.8207 166.673 34.0873 164.976 34.974C163.304 35.8607 161.429 36.304 159.352 36.304ZM159.352 30.68C160.593 30.68 161.644 30.224 162.506 29.312C163.392 28.4 163.836 27.0953 163.836 25.398C163.836 23.7007 163.405 22.396 162.544 21.484C161.708 20.572 160.669 20.116 159.428 20.116C158.161 20.116 157.11 20.572 156.274 21.484C155.438 22.3707 155.02 23.6753 155.02 25.398C155.02 27.0953 155.425 28.4 156.236 29.312C157.072 30.224 158.11 30.68 159.352 30.68Z" fill="#3B82F6"/>
<path d="M183.889 9.324C186.701 9.324 189.158 9.88133 191.261 10.996C193.364 12.1107 194.985 13.6813 196.125 15.708C197.29 17.7093 197.873 20.0273 197.873 22.662C197.873 25.2713 197.29 27.5893 196.125 29.616C194.985 31.6427 193.351 33.2133 191.223 34.328C189.12 35.4427 186.676 36 183.889 36H173.895V9.324H183.889ZM183.471 30.376C185.928 30.376 187.841 29.7047 189.209 28.362C190.577 27.0193 191.261 25.1193 191.261 22.662C191.261 20.2047 190.577 18.292 189.209 16.924C187.841 15.556 185.928 14.872 183.471 14.872H180.393V30.376H183.471Z" fill="#3B82F6"/>
<path d="M211.156 36.304C209.079 36.304 207.204 35.8607 205.532 34.974C203.886 34.0873 202.581 32.8207 201.618 31.174C200.681 29.5273 200.212 27.602 200.212 25.398C200.212 23.2193 200.694 21.3067 201.656 19.66C202.619 17.988 203.936 16.7087 205.608 15.822C207.28 14.9353 209.155 14.492 211.232 14.492C213.31 14.492 215.184 14.9353 216.856 15.822C218.528 16.7087 219.846 17.988 220.808 19.66C221.771 21.3067 222.252 23.2193 222.252 25.398C222.252 27.5767 221.758 29.502 220.77 31.174C219.808 32.8207 218.478 34.0873 216.78 34.974C215.108 35.8607 213.234 36.304 211.156 36.304ZM211.156 30.68C212.398 30.68 213.449 30.224 214.31 29.312C215.197 28.4 215.64 27.0953 215.64 25.398C215.64 23.7007 215.21 22.396 214.348 21.484C213.512 20.572 212.474 20.116 211.232 20.116C209.966 20.116 208.914 20.572 208.078 21.484C207.242 22.3707 206.824 23.6753 206.824 25.398C206.824 27.0953 207.23 28.4 208.04 29.312C208.876 30.224 209.915 30.68 211.156 30.68Z" fill="#3B82F6"/>
<path d="M232.198 30.984H240.71V36H225.7V9.324H232.198V30.984Z" fill="#3B82F6"/>
<path d="M247.077 12.592C245.937 12.592 245 12.2627 244.265 11.604C243.556 10.92 243.201 10.084 243.201 9.096C243.201 8.08267 243.556 7.24667 244.265 6.588C245 5.904 245.937 5.562 247.077 5.562C248.192 5.562 249.104 5.904 249.813 6.588C250.548 7.24667 250.915 8.08267 250.915 9.096C250.915 10.084 250.548 10.92 249.813 11.604C249.104 12.2627 248.192 12.592 247.077 12.592ZM250.307 14.796V36H243.809V14.796H250.307Z" fill="#3B82F6"/>
<path d="M263.642 36.304C261.793 36.304 260.146 35.9873 258.702 35.354C257.258 34.7207 256.118 33.8593 255.282 32.77C254.446 31.6553 253.977 30.414 253.876 29.046H260.298C260.374 29.7807 260.716 30.376 261.324 30.832C261.932 31.288 262.679 31.516 263.566 31.516C264.377 31.516 264.997 31.364 265.428 31.06C265.884 30.7307 266.112 30.3127 266.112 29.806C266.112 29.198 265.796 28.7547 265.162 28.476C264.529 28.172 263.503 27.8427 262.084 27.488C260.564 27.1333 259.297 26.766 258.284 26.386C257.271 25.9807 256.397 25.36 255.662 24.524C254.927 23.6627 254.56 22.51 254.56 21.066C254.56 19.85 254.889 18.748 255.548 17.76C256.232 16.7467 257.22 15.9487 258.512 15.366C259.829 14.7833 261.387 14.492 263.186 14.492C265.846 14.492 267.936 15.1507 269.456 16.468C271.001 17.7853 271.888 19.5333 272.116 21.712H266.112C266.011 20.9773 265.681 20.3947 265.124 19.964C264.592 19.5333 263.883 19.318 262.996 19.318C262.236 19.318 261.654 19.47 261.248 19.774C260.843 20.0527 260.64 20.4453 260.64 20.952C260.64 21.56 260.957 22.016 261.59 22.32C262.249 22.624 263.262 22.928 264.63 23.232C266.201 23.6373 267.48 24.0427 268.468 24.448C269.456 24.828 270.317 25.4613 271.052 26.348C271.812 27.2093 272.205 28.3747 272.23 29.844C272.23 31.0853 271.876 32.2 271.166 33.188C270.482 34.1507 269.481 34.9107 268.164 35.468C266.872 36.0253 265.365 36.304 263.642 36.304Z" fill="#3B82F6"/>
<path d="M288.024 30.49V36H284.718C282.362 36 280.525 35.43 279.208 34.29C277.89 33.1247 277.232 31.2373 277.232 28.628V20.192H274.648V14.796H277.232V9.628H283.73V14.796H287.986V20.192H283.73V28.704C283.73 29.3373 283.882 29.7933 284.186 30.072C284.49 30.3507 284.996 30.49 285.706 30.49H288.024Z" fill="#3B82F6"/>
<path d="M300.269 36.304C298.42 36.304 296.773 35.9873 295.329 35.354C293.885 34.7207 292.745 33.8593 291.909 32.77C291.073 31.6553 290.604 30.414 290.503 29.046H296.925C297.001 29.7807 297.343 30.376 297.951 30.832C298.559 31.288 299.306 31.516 300.193 31.516C301.004 31.516 301.624 31.364 302.055 31.06C302.511 30.7307 302.739 30.3127 302.739 29.806C302.739 29.198 302.422 28.7547 301.789 28.476C301.156 28.172 300.13 27.8427 298.711 27.488C297.191 27.1333 295.924 26.766 294.911 26.386C293.898 25.9807 293.024 25.36 292.289 24.524C291.554 23.6627 291.187 22.51 291.187 21.066C291.187 19.85 291.516 18.748 292.175 17.76C292.859 16.7467 293.847 15.9487 295.139 15.366C296.456 14.7833 298.014 14.492 299.813 14.492C302.473 14.492 304.563 15.1507 306.083 16.468C307.628 17.7853 308.515 19.5333 308.743 21.712H302.739C302.638 20.9773 302.308 20.3947 301.751 19.964C301.219 19.5333 300.51 19.318 299.623 19.318C298.863 19.318 298.28 19.47 297.875 19.774C297.47 20.0527 297.267 20.4453 297.267 20.952C297.267 21.56 297.584 22.016 298.217 22.32C298.876 22.624 299.889 22.928 301.257 23.232C302.828 23.6373 304.107 24.0427 305.095 24.448C306.083 24.828 306.944 25.4613 307.679 26.348C308.439 27.2093 308.832 28.3747 308.857 29.844C308.857 31.0853 308.502 32.2 307.793 33.188C307.109 34.1507 306.108 34.9107 304.791 35.468C303.499 36.0253 301.992 36.304 300.269 36.304Z" fill="#3B82F6"/>
</svg>
