<svg width="66" height="19" viewBox="0 0 66 19" fill="none" xmlns="http://www.w3.org/2000/svg">
<path d="M0 2C0 0.895431 0.895431 0 2 0H64C65.1046 0 66 0.895431 66 2V17C66 18.1046 65.1046 19 64 19H2C0.895429 19 0 18.1046 0 17V2Z" fill="#3B82F6"/>
<path d="M62 9.5C62 13.0899 59.0899 16 55.5 16C51.9101 16 49 13.0899 49 9.5C49 5.91015 51.9101 3 55.5 3C59.0899 3 62 5.91015 62 9.5Z" fill="white"/>
<path d="M4 7C4 5.89543 4.89543 5 6 5H42C43.1046 5 44 5.89543 44 7V12C44 13.1046 43.1046 14 42 14H6C4.89543 14 4 13.1046 4 12V7Z" fill="white"/>
</svg>
